<?xml version="1.0" encoding="UTF-8" standalone="no"?>
<svg xmlns:ffdec="https://www.free-decompiler.com/flash" xmlns:xlink="http://www.w3.org/1999/xlink" ffdec:objectType="frame" height="178.0px" width="116.05px" xmlns="http://www.w3.org/2000/svg">
  <g transform="matrix(1.0, 0.0, 0.0, 1.0, 13.7, 45.4)">
    <use ffdec:characterId="2829" height="164.85" transform="matrix(1.0, 0.0, 0.0, 1.0, 0.0, 0.0)" width="114.05" xlink:href="#shape0"/>
    <use ffdec:characterId="2830" height="164.2" transform="matrix(1.0, 0.0, 0.0, 1.0, 0.0, 0.0)" width="112.9" xlink:href="#shape2"/>
    <use ffdec:characterId="2831" height="21.45" transform="matrix(0.7064, 0.0, 0.0, 0.7739, 13.3, 20.8)" width="42.75" xlink:href="#shape3"/>
  </g>
  <defs>
    <g id="shape0">
      <path d="M 24.05 -12.2 L 19.1 -7.55 L -7.9 -14.65 L -8.55 -20.75 L 24.05 -12.2 M 95.2 -16 L 95.2 -16.1 L 62.65 -7.55 L 41.25 -27.6 L 41 -27.6 L 40.75 -27.6 L 45.65 -32.25 L 46.15 -32.25 L 67.6 -12.15 L 100.35 -20.75 L 84.4 127.95 L 80 127.95 L 95.45 -16.1 L 95.2 -16 M 10 73 L 78 74 L 78.1 79.3 L 4.15 79.3 L 4.15 12.9 L 9 13" fill="#ffffff" fill-rule="evenodd" stroke="none"/>
      <path d="M 19.1 -7.55 L 24.05 -12.2 L 40.5 -27.6 L 40.75 -27.6 L 41 -27.6 L 62.45 -7.5 L 62.65 -7.55 L 95.2 -16.1 L 95.2 -16 L 79.25 132.6 L 2.25 132.6 L -13.7 -16.1 L 19.05 -7.5 L 19.1 -7.55 M 4.15 79.3 L 78 79 L 81 77 L 81 10 L 5 10 L 4 14 L 3.9 79.3 L 4.15 79.3" fill="#111111" fill-rule="evenodd" stroke="none"/>
    </g>
    <g id="shape2">
      <path d="M46.15 -32.25 L67.6 -12.15 100.35 -20.75 84.4 127.95 7.4 127.95 -8.55 -20.75 24.2 -12.15 45.65 -32.25 M8.8 74.65 L8.8 8.25 83.0 8.25 83.0 74.65 8.8 74.65 Z" fill="none" stroke="#000000" stroke-linecap="round" stroke-linejoin="round" stroke-width="4.0"/>
    </g>
    <g id="shape3">
      <path d="M35.95 78.95 L75.2 78.95 71.75 100.4 32.45 100.4 35.95 78.95" fill="#ffffff" fill-opacity="0.49803922" fill-rule="evenodd" stroke="none"/>
    </g>
  </defs>
</svg>
